<svg width="238" height="228" viewBox="0 0 238 228" fill="none" xmlns="http://www.w3.org/2000/svg">
<path fill-rule="evenodd" clip-rule="evenodd" d="M119 126.188C142.3 126.188 161.188 107.3 161.188 84.0002C161.188 60.7007 142.3 41.8127 119 41.8127C95.7005 41.8127 76.8125 60.7007 76.8125 84.0002C76.8125 107.3 95.7005 126.188 119 126.188ZM114.312 65.2502C114.312 62.6614 116.411 60.5627 119 60.5627C121.589 60.5627 123.688 62.6614 123.688 65.2502V79.3127H137.75C140.339 79.3127 142.438 81.4113 142.438 84.0002C142.438 86.589 140.339 88.6877 137.75 88.6877H123.688V102.75C123.688 105.339 121.589 107.438 119 107.438C116.411 107.438 114.312 105.339 114.312 102.75V88.6877H100.25C97.6612 88.6877 95.5625 86.589 95.5625 84.0002C95.5625 81.4114 97.6612 79.3127 100.25 79.3127H114.312V65.2502Z" fill="#00AFDB"/>
<path fill-rule="evenodd" clip-rule="evenodd" d="M119 31.6565C90.0913 31.6565 66.6562 55.0915 66.6562 84.0002C66.6562 89.3176 67.4479 94.443 68.9171 99.2687C69.5454 101.333 68.3817 103.515 66.3179 104.143C64.254 104.772 62.0716 103.608 61.4433 101.544C59.752 95.989 58.8438 90.0971 58.8438 84.0002C58.8438 50.7768 85.7766 23.844 119 23.844C135.648 23.844 150.723 30.612 161.611 41.5372C163.133 43.0653 163.129 45.5386 161.601 47.0615C160.073 48.5843 157.6 48.58 156.077 47.0519C146.595 37.5374 133.488 31.6565 119 31.6565ZM171.682 63.857C173.746 63.2287 175.928 64.3924 176.557 66.4562C178.248 72.0114 179.156 77.9033 179.156 84.0002C179.156 117.224 152.223 144.156 119 144.156C102.352 144.156 87.2769 137.388 76.3894 126.463C74.8665 124.935 74.8708 122.462 76.3989 120.939C77.927 119.416 80.4003 119.42 81.9231 120.948C91.4049 130.463 104.512 136.344 119 136.344C147.909 136.344 171.344 112.909 171.344 84.0002C171.344 78.6828 170.552 73.5574 169.083 68.7316C168.455 66.6678 169.618 64.4854 171.682 63.857Z" fill="#4F4F4F"/>
<path d="M22.2578 205.471C22.2578 208.264 21.248 210.455 19.2285 212.045C17.209 213.635 14.4232 214.43 10.8711 214.43C7.31901 214.43 4.41146 213.878 2.14844 212.776V207.92C3.58073 208.593 5.09896 209.123 6.70312 209.51C8.32161 209.897 9.82552 210.09 11.2148 210.09C13.2487 210.09 14.7454 209.703 15.7051 208.93C16.679 208.156 17.166 207.118 17.166 205.815C17.166 204.64 16.722 203.645 15.834 202.828C14.946 202.012 13.1126 201.045 10.334 199.928C7.4694 198.768 5.44987 197.443 4.27539 195.953C3.10091 194.464 2.51367 192.673 2.51367 190.582C2.51367 187.961 3.44466 185.899 5.30664 184.395C7.16862 182.891 9.66797 182.139 12.8047 182.139C15.8125 182.139 18.806 182.798 21.7852 184.115L20.1523 188.305C17.3594 187.13 14.8672 186.543 12.6758 186.543C11.0143 186.543 9.75391 186.908 8.89453 187.639C8.03516 188.355 7.60547 189.307 7.60547 190.496C7.60547 191.313 7.77734 192.014 8.12109 192.602C8.46484 193.175 9.0306 193.719 9.81836 194.235C10.6061 194.75 12.0241 195.43 14.0723 196.276C16.3783 197.235 18.0684 198.13 19.1426 198.961C20.2168 199.792 21.0046 200.73 21.5059 201.776C22.0072 202.821 22.2578 204.053 22.2578 205.471ZM36.3309 210.391C38.4507 210.391 39.969 209.782 40.8856 208.565C41.8166 207.333 42.2821 205.478 42.2821 203V202.205C42.2821 199.269 41.8023 197.156 40.8427 195.867C39.8973 194.578 38.3648 193.934 36.245 193.934C34.4403 193.934 33.0653 194.65 32.12 196.082C31.1747 197.514 30.702 199.57 30.702 202.248C30.702 207.677 32.5783 210.391 36.3309 210.391ZM34.8915 214.43C31.9553 214.43 29.6565 213.356 27.995 211.207C26.3335 209.044 25.5028 206.029 25.5028 202.162C25.5028 198.295 26.3479 195.273 28.038 193.096C29.7281 190.904 32.0555 189.809 35.0204 189.809C36.51 189.809 37.842 190.088 39.0165 190.647C40.2053 191.191 41.2652 192.093 42.1962 193.354H42.368L42.9266 190.238H47.1161V224.57H42.0458V214.494C42.0458 213.864 42.0744 213.198 42.1317 212.496C42.189 211.794 42.2391 211.257 42.2821 210.885H42.0028C40.5132 213.248 38.1428 214.43 34.8915 214.43ZM70.2127 214L69.5037 210.885H69.2459C68.544 211.988 67.5414 212.854 66.238 213.485C64.949 214.115 63.4737 214.43 61.8123 214.43C58.9334 214.43 56.7849 213.714 55.367 212.281C53.949 210.849 53.24 208.679 53.24 205.772V190.238H58.3318V204.891C58.3318 206.71 58.7042 208.078 59.449 208.994C60.1938 209.897 61.3611 210.348 62.9509 210.348C65.0707 210.348 66.6248 209.718 67.613 208.457C68.6157 207.182 69.117 205.055 69.117 202.076V190.238H74.1873V214H70.2127ZM85.5534 214H80.5045V190.238H85.5534V214ZM80.2038 183.944C80.2038 183.041 80.4472 182.347 80.9342 181.86C81.4355 181.373 82.1445 181.129 83.0612 181.129C83.9492 181.129 84.6367 181.373 85.1237 181.86C85.625 182.347 85.8756 183.041 85.8756 183.944C85.8756 184.803 85.625 185.483 85.1237 185.985C84.6367 186.472 83.9492 186.715 83.0612 186.715C82.1445 186.715 81.4355 186.472 80.9342 185.985C80.4472 185.483 80.2038 184.803 80.2038 183.944ZM107.791 214H89.7652V210.885L101.775 194.106H90.4956V190.238H107.447V193.762L95.6948 210.133H107.791V214Z" fill="#4F4F4F"/>
<path d="M135.262 214L123.553 184.996H123.381C123.495 186.772 123.553 188.591 123.553 190.453V214H121.447V182.59H124.842L135.971 210.219H136.1L147.229 182.59H150.537V214H148.324V190.195C148.324 188.534 148.41 186.815 148.582 185.039H148.41L136.658 214H135.262ZM172.194 214L171.657 210.305H171.485C170.311 211.809 169.1 212.876 167.854 213.506C166.623 214.122 165.162 214.43 163.472 214.43C161.18 214.43 159.397 213.843 158.122 212.668C156.847 211.494 156.21 209.868 156.21 207.791C156.21 205.514 157.155 203.745 159.046 202.485C160.951 201.224 163.701 200.558 167.296 200.486L171.743 200.358V198.811C171.743 196.591 171.292 194.915 170.39 193.783C169.487 192.652 168.033 192.086 166.028 192.086C163.865 192.086 161.624 192.688 159.304 193.891L158.509 192.043C161.072 190.84 163.608 190.238 166.114 190.238C168.678 190.238 170.59 190.904 171.85 192.236C173.125 193.569 173.763 195.645 173.763 198.467V214H172.194ZM163.6 212.496C166.093 212.496 168.055 211.787 169.487 210.369C170.934 208.937 171.657 206.953 171.657 204.418V202.119L167.575 202.291C164.295 202.449 161.953 202.964 160.55 203.838C159.16 204.697 158.466 206.044 158.466 207.877C158.466 209.338 158.91 210.477 159.798 211.293C160.7 212.095 161.968 212.496 163.6 212.496ZM186.633 212.539C187.979 212.539 189.153 212.425 190.156 212.195V213.914C189.125 214.258 187.936 214.43 186.59 214.43C184.527 214.43 183.002 213.878 182.013 212.776C181.039 211.673 180.553 209.94 180.553 207.576V192.494H177.094V191.248L180.553 190.281L181.627 184.996H182.722V190.647H189.576V192.494H182.722V207.276C182.722 209.066 183.038 210.391 183.668 211.25C184.298 212.11 185.286 212.539 186.633 212.539ZM203.52 190.195C204.508 190.195 205.568 190.296 206.7 190.496L206.292 192.537C205.318 192.294 204.308 192.172 203.262 192.172C201.271 192.172 199.639 193.017 198.364 194.707C197.089 196.397 196.452 198.531 196.452 201.11V214H194.325V190.647H196.13L196.344 194.858H196.495C197.454 193.139 198.478 191.936 199.567 191.248C200.656 190.546 201.973 190.195 203.52 190.195ZM212.716 214H210.589V190.647H212.716V214ZM210.289 184.158C210.289 182.783 210.74 182.096 211.642 182.096C212.086 182.096 212.43 182.275 212.673 182.633C212.931 182.991 213.06 183.5 213.06 184.158C213.06 184.803 212.931 185.311 212.673 185.684C212.43 186.056 212.086 186.242 211.642 186.242C210.74 186.242 210.289 185.548 210.289 184.158ZM225.414 201.99L217.272 190.647H219.721L226.682 200.486L233.579 190.647H235.92L227.907 201.99L236.5 214H234.03L226.682 203.58L219.291 214H216.95L225.414 201.99Z" fill="#4F4F4F"/>
</svg>
